<svg width="40" height="40" viewBox="0 0 40 40" fill="none" xmlns="http://www.w3.org/2000/svg">
<path fill-rule="evenodd" clip-rule="evenodd" d="M22.4306 1.13378C22.2078 1.04219 21.9691 0.996758 21.7287 1.00018C21.4883 1.0036 21.251 1.0558 21.0308 1.1537C20.8106 1.25161 20.612 1.39322 20.4466 1.5702C20.2813 1.74717 20.1527 1.95592 20.0682 2.18412C19.9838 2.41232 19.9453 2.65535 19.9551 2.89887C19.9648 3.14239 20.0226 3.38146 20.125 3.60198C20.2274 3.82249 20.3723 4.01999 20.5512 4.1828C20.7302 4.34562 20.9394 4.47046 21.1667 4.54995L21.7986 4.79084V10.5721L3.32166 15.6817C2.90213 15.799 2.53872 16.0664 2.29866 16.4343C2.05861 16.8023 1.95817 17.2459 2.01593 17.6831C2.07369 18.1203 2.28575 18.5215 2.61285 18.8125C2.93995 19.1035 3.35996 19.2645 3.79516 19.2658V30.215C3.79516 31.183 4.17451 32.1113 4.84978 32.7958C5.52504 33.4803 6.44089 33.8648 7.39585 33.8648H32.6007C33.5557 33.8648 34.4716 33.4803 35.1468 32.7958C35.8221 32.1113 36.2014 31.183 36.2014 30.215V10.1414C36.6229 10.141 37.0309 9.99066 37.3543 9.71668C37.6776 9.4427 37.8959 9.0624 37.9711 8.64205C38.0463 8.22169 37.9736 7.78792 37.7657 7.41631C37.5578 7.04469 37.2279 6.75879 36.8334 6.60842L22.4306 1.13378ZM32.6007 8.89681L25.3993 6.15949V30.215H32.6007V8.89681ZM16.3976 24.7404V30.215H21.7986V14.3568L7.39585 18.3351V30.215H12.7969V24.7404C12.7969 24.2564 12.9866 23.7923 13.3242 23.45C13.6618 23.1078 14.1198 22.9155 14.5973 22.9155C15.0747 22.9155 15.5327 23.1078 15.8703 23.45C16.2079 23.7923 16.3976 24.2564 16.3976 24.7404ZM26.2995 15.616C26.2995 15.132 26.4892 14.6679 26.8268 14.3256C27.1645 13.9834 27.6224 13.7911 28.0999 13.7911H29.9002C30.3777 13.7911 30.8356 13.9834 31.1733 14.3256C31.5109 14.6679 31.7006 15.132 31.7006 15.616C31.7006 16.1 31.5109 16.5642 31.1733 16.9064C30.8356 17.2486 30.3777 17.4409 29.9002 17.4409H28.0999C27.6224 17.4409 27.1645 17.2486 26.8268 16.9064C26.4892 16.5642 26.2995 16.1 26.2995 15.616ZM28.0999 21.0906C27.6224 21.0906 27.1645 21.2829 26.8268 21.6251C26.4892 21.9674 26.2995 22.4315 26.2995 22.9155C26.2995 23.3995 26.4892 23.8637 26.8268 24.2059C27.1645 24.5481 27.6224 24.7404 28.0999 24.7404H29.9002C30.3777 24.7404 30.8356 24.5481 31.1733 24.2059C31.5109 23.8637 31.7006 23.3995 31.7006 22.9155C31.7006 22.4315 31.5109 21.9674 31.1733 21.6251C30.8356 21.2829 30.3777 21.0906 29.9002 21.0906H28.0999Z" fill="#007E6E"/>
</svg>
